<svg width="910" height="580" viewBox="0 0 910 580" fill="none" xmlns="http://www.w3.org/2000/svg">
            <path d="M402.921 541.963C403.871 537.042 404.815 532.124 405.763 527.205C406.322 527.09 406.882 526.977 407.439 526.864C408.294 530.63 409.931 534.455 409.667 538.141C409.539 539.956 405.888 541.516 403.83 543.193C403.527 542.782 403.224 542.374 402.921 541.963V541.963ZM886.599 488.426C885.737 489.815 884.512 491.296 882.867 492.877C873.495 501.89 862.197 506.071 850.104 510.04C808.488 523.699 764.515 532.594 721.475 540.482C676.863 548.66 631.763 554.267 586.453 556.5C540.304 558.754 494.126 560.404 447.964 562.319C432.167 563.02 416.41 564.632 400.613 565.343C392.501 565.71 384.344 565.01 376.858 564.807C392.966 565.241 421.534 547.857 414.149 528.581C412.791 525.036 400.993 503.289 397.394 503.438C406.027 503.078 413.8 502.644 421.575 502.457C471.041 501.271 524.083 501.63 572.594 488.79C606.617 479.785 634.649 462.355 662.855 441.853C665.85 439.673 669.123 438.48 672.848 438.367C713.545 437.127 754.396 440.154 794.426 447.621C806.932 449.954 900.286 466.391 886.599 488.426V488.426ZM762.102 547.377C749.558 549.795 736.995 552.131 724.424 554.418C711.743 556.726 698.949 558.507 686.381 561.311C662.167 566.717 637.434 566.84 612.945 569.443C599.168 570.906 585.432 569.928 571.683 570.416C583.152 569.415 594.642 568.624 606.075 567.328C612.555 566.593 618.923 564.943 625.366 563.862C632.685 562.635 640.145 562.045 647.335 560.317C653.986 558.718 660.65 560.086 667.149 559.198C681.281 557.27 695.253 554.213 709.371 552.164C722.045 550.324 734.844 549.392 747.54 547.698C753.316 546.925 758.976 545.277 764.69 544.027C764.883 544.545 765.075 545.064 765.27 545.583C764.218 546.199 763.232 547.161 762.102 547.377V547.377ZM494.832 571.183C468.135 572.451 441.436 573.622 414.729 574.597C410.663 574.744 406.553 573.683 402.464 573.183C402.469 572.664 402.477 572.143 402.484 571.625L511.364 567.112C511.443 567.861 511.523 568.608 511.602 569.358C506.011 569.982 500.438 570.916 494.832 571.183V571.183ZM207.213 443.375C210.948 446.194 214.352 448.761 218.49 451.882C218.205 454.839 217.812 458.936 217.381 463.398C211.944 460.569 206.841 457.915 201.946 455.368C203.799 451.143 205.524 447.218 207.213 443.375ZM324.191 545.303C315.004 544.271 305.85 542.887 296.737 541.339C278.904 538.31 261.177 534.65 243.603 530.368C235.247 528.332 226.715 526.453 218.564 523.686C210.55 520.965 203.021 517.068 195.317 513.608C183.789 508.4 171.524 505.224 159.935 500.121C140.956 491.763 130.152 487.974 127.077 486.59C121.892 484.254 109.253 478.466 95.964 468.657C94.8012 467.797 88.6104 463.138 83.5685 455.034C78.5788 447.015 79.5704 443.424 79.9226 442.402C81.0485 439.134 84.1443 437.407 86.3209 436.329C102.186 428.461 122.573 428.533 126.639 428.581C138.515 428.72 147.499 429.583 150.107 429.839C162.812 431.089 180.398 433.11 201.756 436.485C198.36 443.047 195.701 447.844 193.376 452.801C192.1 455.525 190.962 458.456 190.582 461.401C190.05 465.518 195.998 469.543 199.309 466.098C202.318 462.966 204.479 464.64 207.462 466.55C210.928 468.768 214.532 469.61 218.518 470.293C220.713 470.67 224.638 472.354 226.576 470.621C227.831 469.502 226.961 468.58 226.797 467.204C226.309 463.12 226.271 457.47 228.681 453.931C229.574 452.616 232.118 451.928 232.521 450.296C232.994 448.383 230.303 446.366 228.971 445.234C227.331 443.842 225.406 443.165 223.26 443.067C219.06 442.88 214.981 439.948 211.169 437.412C211.931 437.92 215.276 437.261 216.285 437.268C218.128 437.284 219.969 437.368 221.807 437.525C225.593 437.846 229.348 438.47 233.042 439.358C245.256 442.294 257.388 446.935 269.347 450.871C278.594 453.905 287.804 457.042 296.989 460.253C305.814 463.341 313.951 467.302 322.238 471.663C329.076 475.265 336.056 478.597 342.938 482.121C351.717 486.619 360.411 491.278 369.016 496.099C377.218 500.691 385.442 504.767 391.762 511.868C395.22 515.692 395.982 517.969 392.44 520.259C389.639 518.793 387.106 516.36 384.872 516.609C378.552 517.322 376.412 525.765 380.136 530.335C385.227 536.575 386.923 536.377 398.329 530.627C397.137 531.23 396.562 533.664 395.998 534.758C392.673 541.193 384.338 544.343 377.672 545.603C368.441 547.346 358.545 547.336 349.183 547.092C340.828 546.876 332.498 546.235 324.191 545.303V545.303ZM337.84 559.678C326.409 559.773 314.919 558.533 303.537 557.16C291.051 555.65 278.673 553.284 266.226 551.428C261.331 550.696 256.307 550.693 251.466 549.744C239.455 547.382 227.236 545.603 215.517 542.002C203.704 538.372 192.313 533.492 180.446 530.029C171.505 527.421 162.246 525.604 153.89 521.489C161.324 518.588 169.638 518.673 177.476 520.172C185.313 521.671 192.816 524.515 200.38 527.054C212.396 531.087 224.651 534.37 236.972 537.322C248.65 540.117 260.476 543.265 272.32 545.164C281.158 546.579 289.978 547.138 298.824 548.742C317.658 552.159 336.564 554.403 355.75 552.685C356.566 552.611 357.413 552.675 358.217 552.829C358.507 552.886 358.712 553.389 359.177 553.953C353.357 560.661 345.066 559.616 337.84 559.678ZM87.6634 476.628C102.588 487.181 115.526 499.158 134.01 502.457C140.035 503.533 145.367 508.22 151.169 510.928C153.886 512.199 156.967 512.692 160.376 513.677C157.926 514.945 155.941 515.967 153.962 516.999C146 521.15 140.119 514.945 133.618 512.586C128.366 510.682 122.977 508.092 118.824 504.462C112.681 499.094 104.326 496.82 99.5275 489.514C97.006 485.674 92.8166 482.943 89.4762 479.613C88.6758 478.818 88.2574 477.634 87.6634 476.628ZM246.909 563.662C245.218 563.516 243.523 563.344 241.832 563.138C229.762 561.68 217.738 559.873 205.773 557.722C194.369 555.671 182.672 555.304 171.33 552.963C154.673 549.846 137.746 548.191 120.994 545.547C99.534 542.156 77.6105 539.832 56.9398 533.261C47.8583 530.376 38.7799 527.234 30.1714 523.198C26.1718 521.324 22.3529 518.385 19.3618 515.151C16.4106 511.96 13.6341 507.316 14.8919 502.822C15.9593 499.004 19.7235 496.838 22.9328 494.897C35.9313 487.04 51.4667 482.573 65.9017 478.201C67.4683 477.727 70.0459 477.935 71.1207 478.938C78.7826 486.098 85.673 494.032 93.3675 501.158C97.2806 504.78 101.459 508.541 106.061 511.277C110.871 514.137 116.517 515.741 121.631 518.018C118.709 518.139 115.787 518.259 112.863 518.383C110.173 518.493 103.593 516.388 102.052 519.676C100.635 522.698 105.067 523.786 107.175 523.771C117.093 523.696 127.017 524.094 138.108 524.328C137.054 524.307 134.134 526.651 132.755 527.008C130.642 527.56 128.447 527.637 126.285 527.865C122.842 528.23 116.635 528.448 115.737 532.848C118.516 534.583 122.531 533.148 125.574 533.022C135.492 532.612 145.41 532.201 155.328 531.79C155.466 532.26 155.516 532.755 155.474 533.243C149.299 533.495 142.024 532.447 136.079 534.185C135.624 534.319 137.579 537.864 137.865 538.208C139.051 539.635 140.63 540.536 142.509 540.559C146.796 540.615 150.775 538.321 155.028 537.869C159.738 537.371 164.441 538.01 169.126 538.336C171.517 538.503 173.904 538.716 176.292 538.924C178.224 539.091 181.348 539.976 183.209 539.494C178.735 540.656 174.171 541.432 169.684 542.538C167.502 543.075 165.27 543.498 163.173 544.33C161.123 545.141 157.327 547.957 161.973 548.835C162.829 548.997 163.71 548.902 164.576 548.807C174.646 547.693 184.872 546.946 194.783 544.769C200.429 543.532 205.588 545.968 210.73 547.942C228.486 554.754 247.823 554.459 265.777 560.196C270.153 561.595 274.535 562.974 280.175 564.761C269.044 564.47 257.981 564.624 246.909 563.662ZM650.559 434.226C650.792 443.319 645.492 449.559 638.137 449.97C642.106 444.941 646.115 439.856 650.559 434.226ZM184.012 404.714C180.465 400.034 177.134 395.177 173.968 390.228C169.634 383.459 165.117 376.749 161.45 369.618C136.981 322.023 134.355 269.869 134.154 217.051C133.977 170.162 138.422 124.357 144.185 77.8966C145.226 77.8556 146.74 77.3396 147.815 77.8196C218.624 109.404 299.764 112.207 376.314 114.833C377.454 114.872 378.617 114.979 379.759 114.943C421.945 116.083 463.659 117.213 520.194 112.91C562.121 109.72 589.375 106.65 623.215 99.7186C656.92 92.8134 689.118 81.9294 721.978 71.913C724.221 71.2276 726.27 69.9107 728.693 68.7504C735.555 65.4621 736.222 117.911 736.16 121.073C735.416 159.722 732.123 200.201 727.502 238.875C724.706 262.261 719.311 285.315 713.576 308.138C701.665 355.545 673.377 394.12 643.977 432.08C631.091 448.72 619.804 463.084 599.956 471.956C559.046 490.241 512.814 492.418 468.687 493.886C454.815 494.348 440.892 493.08 426.986 492.777C421.87 492.664 416.742 493.149 411.341 492.243C412.958 492.518 415.835 491.26 417.46 490.903C419.74 490.405 422.019 489.904 424.299 489.406C426.648 488.893 428.994 488.38 431.343 487.879C433.342 487.456 435.935 487.368 437.752 486.416C438.466 486.044 439.403 485.43 439.847 484.737C440.838 483.171 438.125 481.644 436.831 481.916C426.807 484.018 416.788 486.144 406.823 488.513C404.333 489.104 401.845 489.712 399.366 490.338C397.787 490.736 396.593 491.298 394.963 491.116C393.844 490.993 392.581 490.472 391.452 490.798C390.928 490.947 388.407 493.295 389.272 493.747C386.051 492.084 382.826 490.423 379.602 488.76C379.731 488.12 379.856 487.481 379.985 486.839C388.851 484.591 397.72 482.342 406.587 480.093C411.02 478.969 415.456 477.845 419.889 476.72C422.163 476.143 424.437 475.565 426.712 474.99C427.962 474.672 429.405 474.728 430.575 474.128C433.204 472.777 429.127 471.355 427.97 471.06C424.763 470.244 420.569 472.079 417.412 472.829C409.084 474.81 400.79 476.939 392.463 478.923C388.05 479.973 383.556 480.668 379.115 481.6C376.876 482.07 374.674 482.704 372.032 483.371C368.628 480.971 364.729 478.219 359.336 474.413C359.785 474.731 362.696 473.73 363.304 473.607C364.734 473.316 366.167 473.026 367.596 472.734C370.536 472.138 373.477 471.54 376.419 470.942C382.074 469.792 387.732 468.642 393.387 467.495C398.983 466.357 404.577 465.22 410.173 464.083C412.919 463.523 415.666 462.966 418.415 462.407C420.887 461.904 423.349 461.955 425.767 461.11C426.044 461.015 426.34 460.897 426.501 460.651C426.961 459.95 425.474 458.695 425.023 458.377C424.024 457.676 423.162 457.771 421.996 457.891C410.986 459.023 400.072 461.976 389.257 464.26C377.929 466.653 366.6 469.048 355.272 471.44C354.744 471.553 354.192 471.663 353.668 471.538C353.126 471.407 352.677 471.04 352.251 470.683C350.382 469.122 348.511 467.559 346.642 465.998C355.729 463.788 364.827 461.619 373.934 459.491C378.488 458.428 383.045 457.373 387.604 456.331C389.883 455.807 392.163 455.288 394.445 454.773C396.383 454.334 398.993 454.239 400.706 453.217C403.321 451.654 398.842 449.125 397.225 449.454C389.883 450.945 382.572 452.588 375.262 454.223C370.708 455.24 366.21 456.49 361.636 457.414C359.31 457.881 356.936 458.338 354.564 458.5C352.428 458.649 350.554 458.81 348.711 460.127C346.426 461.757 344.286 463.066 341.411 463.385C335.542 464.037 329.813 460.977 324.548 458.834C325.287 459.134 330.031 456.269 330.999 455.889C333.268 454.998 335.586 454.228 337.925 453.54C342.568 452.18 347.304 451.168 352.04 450.196C357.033 449.169 362.024 448.093 366.942 446.74C369.501 446.037 372.043 445.262 374.55 444.384C375.744 443.965 377.007 443.588 378.152 443.044C379.564 442.374 379.361 441.799 379.074 440.41C375.803 440.241 372.551 440.854 369.334 441.465C363.651 442.482 357.981 443.627 352.328 444.736C348.326 445.521 344.275 446.127 340.353 447.272C336.639 448.358 333.301 450.283 329.577 451.361C321.699 453.643 313.448 453.13 305.709 450.545C307.275 449.554 308.722 448.06 310.427 447.659C320.952 445.187 331.561 443.064 342.086 440.6C346.237 439.63 350.336 438.282 354.287 436.678C355.706 436.1 357.305 434.273 357.264 432.702C354.294 433.32 351.204 432.997 348.246 433.567C344.758 434.237 341.29 435.009 337.791 435.625C331.276 436.768 324.769 437.948 318.287 439.265C314.411 440.053 310.06 441.416 307.249 443.973C298.865 451.605 290.384 448.037 281.695 445.467C275.287 443.573 268.844 441.802 262.414 439.982C256.795 438.39 251.17 436.827 245.554 435.225C242.746 434.424 239.94 433.615 237.142 432.789C235.586 432.329 231.579 431.939 230.894 430.188C230.103 428.166 230.208 427.462 227.806 427.847C226.214 428.101 224.582 428.941 222.949 428.843C218.87 428.602 214.47 428.533 210.871 426.91C206.761 425.062 203.317 421.679 199.715 418.796C198.475 417.805 197.636 416.316 196.664 415.118C195.471 413.647 206.869 410.913 207.619 410.772C209.716 410.374 211.865 409.773 213.78 408.823C214.711 408.361 215.874 407.771 216.436 406.847C218.131 404.056 215.138 404.157 213.346 404.59C211.313 405.083 209.38 405.882 207.37 406.444C204.061 407.368 200.765 408.384 197.634 409.812C190.826 412.91 187.378 409.154 184.012 404.714V404.714ZM149.698 47.8602L150.343 63.4291C148.133 60.9648 144.661 58.7957 144.362 56.2518C144.096 53.9877 147.346 51.3129 149.698 47.8602V47.8602ZM447.361 109.193C444.765 109.617 442.168 110.444 439.58 110.403C414.329 110.012 389.072 109.691 363.828 108.908C347.62 108.405 331.384 107.689 315.266 106.033C306.499 105.135 298 101.865 289.295 100.088C285.702 99.3541 281.867 99.9138 278.168 99.5698C267.779 98.6072 257.388 97.642 247.038 96.3405C242.643 95.7886 238.402 94.0122 234.008 93.4577C220.451 91.7379 206.746 90.9524 193.306 88.6138C183.431 86.8965 173.867 83.3592 164.209 80.4893C163.215 80.1941 162.515 78.908 161.679 78.0789C161.893 77.7221 162.105 77.3601 162.318 77.0007C170.027 79.3495 177.702 81.8242 185.467 83.9753C188.007 84.6812 190.812 84.3655 193.442 84.8301C206.42 87.125 219.35 89.7151 232.362 91.7944C237.637 92.6363 243.079 92.3822 248.434 92.7416C264.57 93.8274 280.727 94.6925 296.824 96.1865C307.526 97.1825 318.12 99.2951 328.804 100.553C334.721 101.249 340.728 101.107 346.681 101.536C357.683 102.327 368.667 103.397 379.674 104.093C389.573 104.719 399.504 104.84 409.403 105.476C421.994 106.28 434.569 107.379 447.361 109.193V109.193ZM498.513 102.935L532.459 101.526C532.495 102.427 532.534 103.328 532.57 104.229L494.755 105.797C496.067 103.551 497.753 101.942 497.509 100.72C497.263 99.4876 495.138 97.8216 493.767 97.7549C484.908 97.3262 476.026 97.0362 467.16 97.1748C453.593 97.3827 440.037 98.0706 426.47 98.3556C420.993 98.4737 415.504 98.0681 410.019 97.9012C410.062 97.2261 410.106 96.5535 410.15 95.881C455.96 94.9389 501.771 93.9968 547.581 93.0573L547.64 94.4845C533.196 95.0852 518.751 95.7681 504.302 96.2327C499.517 96.3867 497.189 98.0578 498.513 102.935V102.935ZM163.936 49.2259C190.724 36.0931 222.274 33.4851 251.517 29.8707C309.698 22.6831 368.551 21.7616 427.11 21.1943C518.89 20.3087 612.249 20.1316 701.752 43.2037C705.398 44.1407 722.371 46.9027 717.139 53.8696C716.23 55.0786 714.829 55.7974 713.468 56.4597C637.439 93.4372 551.989 86.2445 470.02 88.2262C424.607 89.3223 379.169 89.8306 333.746 89.0425C289.891 88.2827 245.459 87.2456 202.611 76.9469C190.287 73.9845 168.029 71.6178 160.364 60.056C157.599 55.8821 159.363 51.4694 163.936 49.2259ZM224.248 25.725C209.806 28.2946 195.365 30.8616 180.923 33.4312C180.782 32.6791 180.642 31.9269 180.502 31.1748L223.729 22.9167C223.904 23.8537 224.076 24.7906 224.248 25.725V25.725ZM198.234 18.6786C208.381 16.335 218.487 13.6062 228.763 12.0712C239.794 10.4257 250.996 9.89696 262.131 9.02162C274.486 8.05386 286.839 6.94489 299.217 6.44946C311.749 5.94633 324.307 6.05675 336.854 6.04135C338.998 6.03878 341.141 6.73443 343.284 7.10921C286.967 8.78802 231.51 15.3082 176.512 26.2308C176.367 25.5454 176.221 24.8574 176.076 24.1694C183.46 22.3315 190.821 20.3908 198.234 18.6786V18.6786ZM391.672 10.3975C398.049 9.96626 404.489 10.5105 410.861 10.0484C438.464 8.04359 466.082 9.74295 493.687 9.64798C509.859 9.5915 526.042 10.9315 542.203 11.8864C553.855 12.5769 565.514 13.3829 577.112 14.6638C590.365 16.127 603.534 18.3244 616.775 19.9133C626.427 21.0711 636.181 21.4202 645.802 22.7602C653.806 23.8794 661.641 26.146 669.621 27.4963C681.689 29.5345 693.846 31.0439 705.898 33.1668C709.271 33.7623 712.403 35.726 715.648 37.0609L715.899 38.6498C714.762 38.8295 713.545 39.3609 712.495 39.1299C707.171 37.9491 701.917 36.4397 696.582 35.2974C691.225 34.1474 685.824 33.1411 680.403 32.3504C668.913 30.6691 657.39 29.2187 645.895 27.5758C630.326 25.3502 614.831 22.3161 599.191 20.9401C580.185 19.2665 561.063 18.8455 541.985 18.0908C525.405 17.4336 508.689 18.1447 492.26 16.2631C476.088 14.4123 460.101 15.7677 444.039 15.7933C420.104 15.8318 396.167 16.1014 372.238 16.5943C356.122 16.9254 340.019 17.9394 323.904 18.3398C320.464 18.4271 316.996 17.1487 313.53 16.5737C312.74 16.4402 311.89 16.5352 311.082 16.643C301.784 17.8803 292.522 19.5386 283.186 20.3112C266.041 21.7333 248.852 22.6395 231.682 23.7433C231.097 23.7818 230.496 23.615 229.79 22.198C247.469 20.4036 265.119 18.2166 282.834 16.9331C299.766 15.7035 316.783 15.6778 333.733 14.6562C353.062 13.4882 372.353 11.7041 391.672 10.3975V10.3975ZM731.373 53.1842C731.73 47.6831 730.898 43.8172 725.98 41.7174C724.902 41.2553 724.876 38.329 724.165 35.8415C736.299 41.8355 738.509 46.8514 731.373 53.1842V53.1842ZM750.649 172.721C764.98 164.887 792.39 163.981 800.867 163.991C820.004 164.012 827.083 181.164 829.263 197.573C831.768 216.419 832.839 236.953 822.709 253.91C808.403 277.858 783.242 285.238 758.219 292.354C748.289 295.177 738.563 298.71 727.533 302.324C732.541 264.271 743.933 223.971 741.749 185.467C741.436 179.917 745.04 175.789 750.649 172.721V172.721ZM743.243 157.358C743.528 155.322 744.986 153.446 745.961 151.515C754.304 134.999 789.592 137.931 804.727 133.716C816.515 130.433 830.515 133.272 839.657 141.561C851.036 151.883 851.17 171.402 853.683 185.623C856.026 198.884 854.53 214.812 853.942 228.279C852.879 252.588 849.131 275.157 836.145 295.878C827.753 309.265 810.893 311.434 796.821 314.948C778.28 319.582 757.934 326.133 738.763 326.926C732.433 327.573 726.131 328.5 719.87 329.295C718.284 320.686 720.101 315.056 725.99 313.652C750.459 307.822 774.853 300.27 796.777 287.695C807.682 281.441 817.883 273.966 826.929 265.226C844.927 247.832 839.526 222.103 837.434 199.721C835.806 182.299 835.934 170.768 820.784 159.745C803.156 146.918 775.276 158.118 756.609 162.885C752.374 163.965 748.297 165.678 743.528 167.318C743.353 163.118 742.85 160.174 743.243 157.358ZM662.403 429.192C661.084 431.218 657.11 431.518 654.361 432.612C654.032 432.07 653.701 431.528 653.372 430.987C661.371 420.359 669.372 409.735 677.53 398.904C677.138 411.675 668.505 419.836 662.403 429.192V429.192ZM812.4 444.908C825.697 445.121 838.109 449.443 850.725 452.647C857.071 454.257 863.016 457.44 868.725 461.008C861.34 459.103 853.937 457.25 846.567 455.278C835.644 452.357 824.799 449.107 813.784 446.584C811.563 446.076 808.794 447.973 806.252 448.871C807.102 445.798 808.858 444.851 812.4 444.908ZM909.851 481.133C909.253 476.025 906.024 468.252 890.178 458.122C877.979 450.324 863.689 446.153 849.719 442.839C826.855 437.417 803.305 436.277 779.979 434.211C750.338 431.585 719.557 428.715 689.775 429.95C683.984 429.868 678.182 430.376 671.233 430.663C687.02 413.172 719.809 350.804 718.641 341.614C722.448 340.4 726.144 338.809 730.005 338.067C749.078 334.406 769.21 332.17 788.458 327.814C806.047 323.833 830.297 318.052 842.506 303.553C849.283 295.501 852.001 282.466 854.715 272.506C862.079 245.493 863.596 217.066 861.933 189.214C860.488 165.059 854.612 127.227 824.701 123.574C823.259 123.399 821.803 123.32 820.35 123.314C814.433 123.289 808.426 123.214 802.607 124.12C788.833 126.264 775.079 128.677 761.453 131.608C755.441 132.902 750.071 136.103 744.182 137.592C744.103 137.613 745.432 126.028 745.445 125.286C745.697 110.813 744.074 95.4677 743.664 80.6562C743.338 68.8762 747.196 51.0253 739.405 40.9345C729.525 28.1329 709.071 24.6854 694.146 22.3058C667.383 18.0395 640.56 14.9385 613.728 11.4859C518.5 -0.758631 420.705 -1.22329 324.853 1.09728C318.477 1.2513 312.101 1.43358 305.727 1.64151C281.186 2.43728 256.397 3.48459 232.021 6.54958C216.136 8.5467 201.16 12.7977 185.77 16.8663C170.242 20.971 150.725 24.4749 140.063 37.6411C131.786 47.868 133.477 65.0463 131.991 77.3473C129.884 94.7772 128.125 112.248 126.718 129.747C124.549 156.726 124.4 183.665 123.377 210.639C122.592 231.382 121.07 252.165 122.312 272.924C125.456 325.46 149.966 377.349 182.906 417.803C183.604 418.66 189.392 421.72 188.868 423.034C188.358 424.313 182.41 422.932 176.613 421.9C176.612 421.9 175.418 421.687 149.899 419.32C139.611 418.367 122.345 418.023 104.008 421.253C84.3887 424.71 46.8469 441.981 63.2433 467.613C67.2258 473.84 46.0968 477.601 42.6255 478.587C33.7842 481.105 24.791 483.882 16.8115 488.552C1.95863 497.243 -9.58617 518.683 11.5938 528.142C53.4045 546.822 98.1922 552.824 143.07 558.939C237.881 571.578 334.01 579.356 430.057 579.831C478.057 580.068 526.057 578.866 574.014 576.879C597.882 575.426 621.724 573.586 645.533 571.383C698.888 566.455 752.022 557.419 803.413 542.076C835.988 532.334 868.664 521.625 896.988 502.244C899.729 500.37 905.962 497.349 908.647 490.705C910.413 486.339 909.997 482.393 909.851 481.133" fill="#040606"/>
            <path d="M282 439.845C295.466 429.926 311.364 428.853 327.705 429.285C320.228 431.146 312.712 432.873 305.28 434.909C297.689 436.991 290.181 439.378 282.634 441.632C282.424 441.036 282.21 440.441 282 439.845" fill="#040606"/>
            <path d="M231.086 427.326C230.953 427.015 231.094 426.579 231.628 425.978C233.368 424.012 236.659 423.008 239.129 422.4C244.648 421.044 250.228 419.969 255.824 418.985C258.887 418.449 261.931 417.779 265.022 417.407C266.788 417.196 268.559 416.837 270.348 416.914C271.314 416.955 275.2 417.982 273.195 419.758C272.851 420.061 272.376 420.148 271.925 420.225C260.82 422.115 250.051 425.097 239.029 427.321C237.853 427.557 231.687 428.72 231.086 427.326Z" fill="#040606"/>
            <path d="M232.144 412.779C223.331 415.42 214.516 418.062 205.704 420.703C212.735 412.591 221.56 409.981 231.492 410.751C231.71 411.426 231.928 412.104 232.144 412.779Z" fill="#040606"/>
            <path d="M264.349 435.584C264.989 430.72 274.836 425.76 282.252 426.099C280.278 430.838 274.982 433.7 264.349 435.584Z" fill="#040606"/>
            <path d="M126.989 464.322C128.489 465.926 129.506 467.425 130.888 468.413C134.493 470.993 138.18 473.483 142.017 475.693C142.88 476.189 145.04 475.855 145.673 475.111C151.173 468.639 150.94 459.593 144.584 454.798C141.434 452.424 137.525 447.207 133.145 451.499C130.145 454.439 129.197 459.473 126.989 464.322ZM147.524 487.455C147.282 487.466 146.995 487.43 146.636 487.345C144.26 486.793 140.729 483.543 138.872 481.929C135.555 479.043 131.995 476.214 127.839 474.649C125.719 473.848 123.487 473.396 121.218 473.375C119.162 473.36 115.397 474.718 113.994 472.544C112.863 470.793 114.114 466.383 115.148 464.817C118.505 459.742 122.669 455.204 126.077 450.157C130.342 443.845 139.998 442.756 145.483 447.764C147.48 449.587 149.829 451.302 152.327 452.244C159.863 455.091 161.577 459.275 158.245 466.642C156.113 471.358 154.777 476.43 152.659 481.156C151.934 482.758 150.806 484.116 149.712 485.474C148.709 486.719 148.44 487.414 147.524 487.455" fill="#040606"/>
            <path d="M335.527 517.241C340.71 518.275 344.617 519.464 348.575 519.672C350.58 519.777 354.253 518.329 354.412 517.197C354.762 514.722 354.158 511.077 352.467 509.586C349.656 507.114 345.685 505.961 343.821 505.047C340.846 509.422 338.366 513.067 335.527 517.241ZM324.584 519.577C324.592 517.628 326.548 516.168 327.752 514.319C329.004 512.397 330.254 510.477 331.507 508.554C333.42 505.617 335.121 501.977 337.496 499.397C339.501 497.218 342.291 497.411 345.169 498.109C351.409 499.618 356.558 504.334 361.559 508.092C366.493 511.799 365.435 518.871 362.288 523.376C361.89 523.943 361.449 524.497 361.225 525.155C360.671 526.782 362.229 528.52 362.016 530.206C361.8 531.921 360.943 532.979 359.462 533.813C357.013 535.194 352.731 535.471 350.395 533.692C347.505 531.495 344.504 529.436 341.403 527.544C339.252 526.233 335.245 522.875 332.585 523.655C329.857 524.454 326.663 524.138 325.09 521.335C324.73 520.698 324.581 520.118 324.584 519.577" fill="#040606"/>
            <path d="M255.776 504.3C261.823 509.252 268.074 507.519 273.847 506.436C275.973 506.038 278.524 502.937 275.919 499.541C273.781 496.753 271.837 493.816 269.863 491.021C265.13 495.482 260.722 499.636 255.776 504.3V504.3ZM243.439 509.36C241.411 502.375 249.828 500.917 252.919 496.681C255.211 493.537 259.3 492.292 261.474 489.06C263.025 486.752 263.282 481.151 267.348 483.058C276.222 487.222 282.945 494.699 288.225 502.783C291.298 507.491 285.525 510.861 282.416 511.626C275.955 513.218 269.712 516.026 263.007 516.475C255.373 516.984 249.635 513.166 243.439 509.36" fill="#040606"/>
            <path d="M182.272 476.725C183.455 486.097 179.904 491.146 172.555 490.484C171.555 490.394 169.704 490.027 169.712 489.865C170.011 484.262 163.969 486.521 162.137 483.674C166.477 475.539 173.039 473.275 182.272 476.725Z" fill="#040606"/>
            <path d="M222.89 517.453C228.797 510.101 229.148 509.973 237.368 512.014C237.091 513.5 236.808 515.002 236.559 516.326C238.898 517.451 240.956 518.439 243.161 519.499C237.989 526.243 230.398 525.311 222.89 517.453" fill="#040606"/>
            <path d="M288.669 525.652C288.577 518.606 292.735 516.455 296.606 516.968C299.461 517.346 301.866 521.122 304.472 523.383C300.76 525.506 297.209 528.109 293.236 529.449C292.091 529.834 289.722 526.577 288.669 525.652Z" fill="#040606"/>
            <path d="M212.37 488.975C210.712 488.903 208.977 489.093 207.426 488.641C206.487 488.369 205.088 486.457 205.162 486.375C207.221 483.985 209.115 481.141 211.757 479.672C213.5 478.702 216.701 479.092 218.6 480.098C219.935 480.804 220.862 483.651 220.664 485.394C220.531 486.56 218.218 487.725 216.67 488.405C215.399 488.962 213.818 488.808 212.37 488.975" fill="#040606"/>
            <path d="M308.602 484.858C311.289 488.187 314.557 491.221 316.452 494.954C317.614 497.243 317.088 500.714 312.773 501.053C308.979 501.351 307.593 499.697 307.611 496.096C307.631 492.666 307.362 489.237 307.221 485.805C307.68 485.489 308.14 485.173 308.602 484.858" fill="#040606"/>
            <path d="M269.671 466.165C266.408 468.146 263.261 470.382 259.808 471.948C258.812 472.4 255.655 470.852 255.683 470.341C255.865 467.045 256.653 463.78 257.244 460.505C259.58 460.943 261.926 461.334 264.247 461.844C265.009 462.011 265.705 462.486 266.431 462.817C267.512 463.934 268.593 465.051 269.671 466.165" fill="#040606"/>
            <path d="M111.532 443.757C109.021 444.463 106.509 445.172 103.997 445.877C103.605 443.254 101.922 439.375 103.043 438.22C108.041 433.073 108.321 440.844 111.45 441.429C111.477 442.204 111.505 442.982 111.532 443.757" fill="#040606"/>
            <path d="M286.777 481.831C287.375 477.354 287.732 474.685 288.269 470.677C292.101 473.406 294.82 475.342 297.538 477.277C294.563 478.535 291.585 479.795 286.777 481.831Z" fill="#040606"/>
            <path d="M176.143 440.969C176.706 443.38 177.27 445.79 177.833 448.201C175.949 448.147 174.066 448.093 172.182 448.036C172.394 445.695 172.606 443.354 172.818 441.013C173.926 440.998 175.035 440.985 176.143 440.969Z" fill="#040606"/>
          </svg>