<svg width="665" height="213" viewBox="0 0 665 213" fill="none" xmlns="http://www.w3.org/2000/svg">
<path d="M104.196 22.2671C101.733 23.1871 98.689 24.2138 95.737 25.4538C93.677 26.3205 91.6277 27.3204 89.7717 28.5604C82.0944 33.6671 79.0184 41.4138 81.2957 50.2271C82.093 53.3204 83.2944 56.3471 84.6664 59.2271C85.8957 61.8138 87.133 64.8004 89.2677 66.4271C90.9344 67.7071 94.1637 66.7071 96.3744 67.5604C99.921 68.9338 102.646 67.8138 105.293 65.7871C108.1 63.6538 110.966 61.5471 113.529 59.1338C119.521 53.4938 123.685 46.6937 125.273 38.547C127.388 27.6804 121.486 20.9071 110.532 21.4671C108.616 21.5604 106.712 21.9471 104.196 22.2671V22.2671ZM50.7757 172.347C41.0277 174.707 31.3157 176.134 21.2797 173.387C3.70905 168.587 -3.92298 153.36 3.21836 136.787C6.98369 128.04 12.7917 120.827 19.6677 114.44C28.193 106.507 37.7984 100.094 48.181 94.8404C50.1704 93.8404 52.261 92.9471 54.4064 92.3871C55.4584 92.1071 56.741 92.7204 57.9197 92.9338C57.4744 93.9738 57.3197 95.4271 56.533 95.9737C52.5837 98.7204 48.621 101.507 44.3837 103.76C34.8637 108.827 26.9357 115.907 19.7557 123.694C13.161 130.84 8.01969 138.934 8.98636 149.56C9.52769 155.52 12.0277 159.84 17.0397 162.987C21.8037 165.987 26.9224 167.467 32.5224 167.667C42.977 168.04 53.0037 165.72 62.7997 162.547C73.8624 158.974 84.2077 153.8 93.2624 146.36C95.7384 144.32 98.2277 142.24 100.39 139.88C108.317 131.254 110.489 121.747 105.406 110.64C101.104 101.24 95.921 92.4671 90.0384 84.0004C85.289 77.1471 80.9837 69.9737 76.8984 62.7071C73.8744 57.3337 72.3451 51.3337 72.5824 45.1071C72.9157 36.3204 75.9597 28.7871 83.4197 23.5604C90.0584 18.9071 97.181 15.3471 105.201 13.6538C110.354 12.5738 115.358 12.667 120.438 14.0804C129.55 16.6404 134.393 22.6404 134.576 32.1737C134.694 38.3871 133.401 44.3471 130.346 49.8004C124.278 60.6138 116.656 69.8938 105.397 75.8538C97.7717 79.8805 98.0224 80.0671 102.5 87.7871C105.885 93.6138 109.344 99.4537 112.034 105.614C118.177 119.667 116.273 132.587 105.346 143.774C92.221 157.2 76.4983 166.12 58.317 170.734C55.8277 171.36 53.2904 171.814 50.7757 172.347" fill="#231F20"/>
<path d="M373.778 69.1069C372.835 69.3069 371.887 69.4803 370.951 69.7069C355.102 73.5336 355.733 73.3069 348.589 86.6403C345.557 92.2936 342.378 97.8803 339.568 103.64C338.176 106.494 337.142 109.627 336.525 112.747C335.449 118.16 336.926 123.054 341.318 126.56C345.862 130.2 351.003 129.84 355.794 127.214C359.994 124.907 363.851 121.987 367.834 119.294C369.69 118.04 371.454 116.64 373.336 115.44C373.727 115.187 374.602 115.294 375.004 115.574C375.436 115.88 375.898 116.694 375.78 117.134C375.376 118.64 375.099 120.427 374.107 121.494C367.039 129.08 359.464 135.934 348.75 138C339.71 139.734 332.958 136.374 329.331 127.854C326.282 120.694 326.28 113.44 329.716 106.4C332.815 100.054 336.214 93.8669 339.435 87.5736C340.752 85.0003 342.074 82.427 343.159 79.7603C343.874 78.0003 343.263 76.6137 341.097 76.5204C337.893 76.387 334.679 76.4269 331.483 76.2136C328.619 76.0136 325.728 75.787 322.931 75.187C320.232 74.6004 318.508 72.7604 317.946 69.9204C317.443 67.4004 318.654 65.187 321.206 65.067C324.714 64.8803 328.247 65.1337 331.768 65.2537C354.771 66.0137 351.247 66.7737 360.984 48.2937C368.462 34.107 376.591 20.2536 384.415 6.24028C385.854 3.66695 387.436 1.09366 390.531 0.560327C391.891 0.320327 393.719 0.906942 394.828 1.77361C395.546 2.33361 395.839 4.26695 395.455 5.24028C394.643 7.29362 393.43 9.25367 392.087 11.027C381.175 25.467 373.638 41.8403 365.084 57.6403C364.931 57.9203 364.774 58.2003 364.648 58.4937C363.399 61.427 364.318 62.9203 367.37 62.6937C369.928 62.507 372.471 62.0936 375.02 61.7736C376.614 61.5736 378.204 61.2803 379.804 61.2136C382.611 61.0936 386.667 60.147 387.376 63.3603C388.214 67.147 383.806 66.8136 381.328 67.6003C378.888 68.3603 376.318 68.7069 373.806 69.2403L373.778 69.1069" fill="#231F20"/>
<path d="M535.708 84.6802C537.424 83.5736 539.209 82.4536 540.928 81.227C541.065 81.1336 540.848 80.067 540.608 79.987C539.021 79.4137 535.047 81.6269 534.563 83.3469C534.495 83.5869 535.124 84.0269 535.708 84.6802V84.6802ZM602.553 103.48C584.748 107.667 566.992 112.08 549.107 115.894C543.867 117.014 538.155 117.147 532.839 116.427C519.047 114.547 512.781 103.107 518.004 90.1069C519.945 85.2803 522.852 80.9469 527.172 77.9336C531.115 75.2003 535.273 72.6936 539.565 70.5469C541.787 69.4402 544.493 68.8669 546.997 68.8136C554.056 68.6802 557.887 74.6803 553.977 80.5736C551.236 84.7069 547.243 88.4269 543 91.0136C538.739 93.6002 533.496 94.6003 528.645 96.1736C526.075 97.0136 525.309 98.9736 526.836 101.214C529.201 104.68 532.613 106.414 536.645 106.44C543.045 106.48 549.615 106.987 555.816 105.774C578.203 101.414 600.424 96.2002 622.792 91.7469C633.796 89.5469 644.98 88.2669 656.097 86.6669C657.656 86.4403 659.311 86.6403 660.889 86.8669C662.088 87.0269 663.236 87.5603 664.407 87.9336C663.485 88.5469 662.644 89.4803 661.631 89.7336C653.848 91.6803 646.055 93.5869 638.221 95.3069C626.307 97.9203 614.356 100.374 602.42 102.907C602.465 103.094 602.509 103.294 602.553 103.48" fill="#231F20"/>
<path d="M120.764 203.894C121.234 201.4 121.68 196.934 122.998 192.734C123.937 189.747 125.712 186.854 127.694 184.374C137.384 172.307 148.362 161.56 161.312 152.96C162.093 152.44 163.009 152.04 163.917 151.827C164.465 151.694 165.373 151.827 165.658 152.2C165.956 152.574 165.961 153.614 165.646 153.987C163.373 156.654 161.076 159.32 158.62 161.827C151.662 168.92 144.51 175.827 137.658 183.027C133.398 187.507 130.281 192.747 129.444 199.054C129.064 201.934 130.802 203.534 133.418 202.24C138 199.987 142.598 197.627 146.782 194.721C155.273 188.841 162.553 181.521 168.866 173.387C176.897 163.041 179.888 151.12 178.708 138.094C178.188 132.347 177.762 126.574 177.642 120.814C177.5 113.974 178.924 107.387 181.897 101.214C184.054 96.7337 187.196 93.2004 192.216 91.7738C196.794 90.4671 203.185 93.4538 201.032 100.334C199.79 104.294 198.298 108.201 196.465 111.921C195.932 113.001 193.865 113.774 192.446 113.867C190.492 114 189.948 112.347 189.966 110.547C189.972 110.04 189.524 109.534 189.285 109.027C188.816 109.374 188.077 109.627 187.924 110.08C187.014 112.774 185.685 115.48 185.541 118.24C185.274 123.347 185.496 128.494 185.926 133.6C187.061 147.067 185.09 159.907 178.164 171.64C171.881 182.294 163.068 190.774 153.558 198.48C148.837 202.294 143.684 205.64 138.456 208.747C135.776 210.347 132.569 211.347 129.474 211.867C124.952 212.627 122.049 210.267 120.764 203.894" fill="#231F20"/>
<path d="M241.876 111.854C240.812 112.56 239.847 112.854 239.451 113.507C234.961 120.88 230.591 128.32 226.116 135.694C224.801 137.854 223.491 140.12 221.723 141.88C220.799 142.8 218.729 143.32 217.453 142.987C215.328 142.414 215.019 140.28 215.22 138.254C215.283 137.614 215.436 136.974 215.665 136.387C220.16 124.76 224.58 113.12 229.255 101.56C230.312 98.947 232.097 96.5737 233.859 94.3204C235.463 92.2804 237.936 92.1604 239.349 94.627C241.277 97.9737 242.731 97.5603 245.12 95.4136C246.761 93.947 248.612 92.587 250.593 91.6403C253.587 90.227 256.528 92.0937 256.679 95.4403C256.763 97.3203 256.552 99.307 256.005 101.094C253.765 108.427 251.377 115.72 248.96 123C248.569 124.174 247.879 125.294 247.112 126.28C245.92 127.8 242.665 127.24 242.46 125.32C242.096 121.894 242.363 118.4 242.308 114.934C242.295 114.054 242.068 113.16 241.876 111.854" fill="#231F20"/>
<path d="M477.152 100.934C474.1 101.321 472.507 101.761 470.936 101.694C468.098 101.574 464.798 101.734 463.652 98.3472C462.579 95.1605 463.086 91.8806 465.508 89.4006C467.73 87.1206 470.399 85.294 472.731 83.1206C474.202 81.7473 473.707 80.0939 471.782 79.6139C470.239 79.2272 468.655 78.9206 467.072 78.7873C462.275 78.4006 461.823 78.9206 462.267 83.9339C462.323 84.5606 462.548 85.1872 462.543 85.8139C462.52 87.9605 460.338 89.2539 458.502 88.1339C454.17 85.4939 451.651 81.4673 450.55 76.654C449.846 73.5606 451.486 70.7739 454.776 70.1739C458.487 69.4939 462.423 69.1873 466.146 69.654C471.487 70.3073 476.828 71.4806 481.968 73.0672C485.542 74.1739 485.932 76.2139 485.031 79.9606C484.226 83.3073 482.051 85.5339 479.572 87.6139C478.348 88.6405 477.062 89.6006 475.923 90.7206C474.878 91.734 474.603 92.7472 476.342 93.5339C478.695 94.6006 482.482 93.1873 483.062 97.3606C480.712 98.7739 478.363 100.201 477.152 100.934" fill="#231F20"/>
<path d="M395.675 114.973C395.803 113.44 395.688 110.507 396.348 107.747C398.637 98.2135 404.011 90.2002 409.599 82.3602C410.769 80.7069 412.887 79.5736 414.487 81.3202C415.551 82.4802 416.353 85.1068 415.756 86.3468C413.68 90.6401 410.64 94.4669 408.551 98.7602C406.855 102.24 403.516 105.547 405.843 110.08C410.203 110.413 412.448 106.68 415.647 104.84C418.105 103.413 419.965 100.947 422.444 99.5735C423.881 98.7868 426.187 98.7468 427.796 99.2801C429.976 100.013 429.819 102.187 429.316 104.187C428.38 107.907 427.613 111.667 426.56 115.36C425.719 118.307 422.683 119.28 420.793 116.813C418.081 113.28 416.039 113.813 412.903 116.08C410.092 118.12 406.835 119.707 403.567 120.934C399.419 122.48 396.775 120.68 395.675 114.973" fill="#231F20"/>
<path d="M281.425 110.84C280.669 107.187 281.321 103.787 283.487 100.787C287.568 95.1605 293.025 91.2805 299.723 89.5205C306.903 87.6271 311.069 91.9738 308.977 99.1338C308.384 101.174 306.971 103.107 305.497 104.694C304.307 105.96 302.62 105.76 301.43 104.134C300.574 102.96 299.714 101.014 298.716 100.92C297.375 100.8 295.837 102.027 294.505 102.867C293.721 103.36 293.091 104.16 292.533 104.934C291.487 106.387 291.328 107.88 292.8 109.174C294.481 110.654 296.271 112.014 297.92 113.52C301.721 117 302.871 121.64 303.136 126.507C303.305 129.614 299.161 131.92 296.984 129.707C291.68 124.307 286.897 118.4 281.953 112.667C281.577 112.227 281.589 111.454 281.425 110.84" fill="#231F20"/>
<path d="M157.835 100.587C157.04 102.614 156.62 104.147 155.881 105.507C152.379 111.934 148.745 118.294 145.245 124.734C142.352 130.054 139.629 135.467 136.721 140.774C135.983 142.12 134.896 143.307 133.811 144.427C133.511 144.734 132.553 144.667 132.057 144.427C131.572 144.2 130.98 143.547 130.979 143.067C130.973 141.827 131.036 140.507 131.479 139.374C134.031 132.854 136.364 126.214 139.427 119.947C142.351 113.947 145.979 108.28 149.513 102.614C150.456 101.094 152.02 99.6404 153.633 99.0004C154.575 98.627 156.177 99.9071 157.835 100.587" fill="#231F20"/>
<path d="M162.068 62.9599C162.372 60.5333 162.568 56.9999 163.374 53.5999C163.674 52.3332 165.211 51 166.51 50.3866C169.12 49.1733 172.206 51.2399 171.687 53.9599C170.908 58.0266 169.678 62.0266 168.342 65.9599C168.015 66.9199 166.139 68.3065 165.659 68.0798C164.406 67.4798 163.511 66.1066 162.52 64.9999C162.335 64.7866 162.371 64.3866 162.068 62.9599" fill="#231F20"/>
</svg>
